<svg xmlns="http://www.w3.org/2000/svg" width="516.199" height="73.428" viewBox="0 0 516.199 73.428"><path d="M52.827,17.016l-1.645,0a16.866,16.866,0,0,0-16.833,16.94l.067,24.1,12.16.008-.065-23.549a6.322,6.322,0,0,1,6.348-6.354l7.11-.02L59.938,17Zm61.252,15.866c.12-3.788,3.613-6.873,7.947-6.885,4.41-.012,7.943,3.019,8.017,6.84Zm27.786,5.6c-.126-12.683-7.053-22.648-19.867-22.612-10.991.031-19.865,8.948-19.831,21.192.037,13.209,8.139,21.007,20.037,21.209a20.415,20.415,0,0,0,17.907-10.758l-11.135-2.88a8.288,8.288,0,0,1-6.889,3.45c-4.335.012-7.845-3.089-7.985-6.861l27.77-.077c.022-.593-.005-2.035-.007-2.663M87.749,41.349a6.343,6.343,0,1,1-12.686.035l-.052-18.562a5.869,5.869,0,0,0-5.9-5.852l-6.337.018.064,22.839c.029,10.283,5.615,18.588,18.58,18.552,13-.036,18.52-8.372,18.492-18.655l-.064-22.839-12.168.034ZM17.87,7.049,5.712,7.082,5.74,17.147,0,17.163.031,28.308l5.74-.016.036,13.064C5.835,51.6,14.14,58.093,24.374,58.065h7.177l-.03-10.683-7.2.02a6.353,6.353,0,0,1-6.362-6.329l-.036-12.814,7.969-.051a5.822,5.822,0,0,0,5.555-5.857l-.015-5.274-13.54.038Z" fill="#e91f26"/><path d="M214.792,58.064V7.117H227V45.882h15.733l2.679,12.183H214.792Zm73.063-21.046c0,12.351-9.223,21.173-21.173,21.173-11.87,0-21.173-8.822-21.173-21.173s9.3-21.093,21.173-21.093C278.632,15.926,287.855,24.667,287.855,37.018Zm-12.19,0c0-6.737-4.331-9.865-8.983-9.865-4.572,0-8.982,3.128-8.982,9.865,0,6.656,4.411,9.945,8.982,9.945C271.334,46.963,275.665,43.755,275.665,37.018ZM301.6,56.186a8.34,8.34,0,0,0,8.582,6.657c6.1,0,9.865-2.967,9.865-10.186V50.812c-1.444,2.165-4.892,4.491-10.667,4.491-10.586,0-18.526-8.341-18.526-19.409,0-10.506,7.619-19.489,18.526-19.489,6.5,0,9.945,2.887,11.068,4.972v-4.25h11.629V52.014c0,11.469-6.416,21.414-21.333,21.414-11.469,0-18.767-7.058-19.89-14.2ZM320.122,35.9a8.545,8.545,0,1,0-17.082,0c0,5.454,3.689,8.822,8.581,8.822C316.594,44.718,320.122,41.349,320.122,35.9ZM344.654,0A7.138,7.138,0,1,1,337.6,7.138,7.171,7.171,0,0,1,344.654,0Zm-5.74,58.064V17.129H351.1V58.065h-12.19ZM429.7,0a7.138,7.138,0,1,1-7.057,7.138A7.171,7.171,0,0,1,429.7,0Zm-5.74,58.064V17.129h12.19V58.065h-12.19ZM366.769,43.835c.16,2.727,2.085,5.374,6.256,5.374,3.128,0,4.652-1.684,4.652-3.449,0-1.444-.962-2.647-3.93-3.288l-4.572-1.043c-8.5-1.845-11.87-6.657-11.87-12.271,0-7.3,6.416-13.233,15.319-13.233,11.549,0,15.559,7.218,15.96,11.869l-10.105,1.845c-.321-2.647-2.005-4.892-5.694-4.892-2.326,0-4.331,1.363-4.331,3.449,0,1.684,1.364,2.647,3.128,2.967l5.293,1.043c8.261,1.684,12.271,6.656,12.271,12.511,0,6.817-5.213,13.474-15.88,13.474-12.512,0-16.522-8.1-16.842-12.512ZM410.5,17.129h7.78V27.8H410.5l.278,15.195c0,3.288,1.765,4.171,4.411,4.171a15.065,15.065,0,0,0,3.208-.4v10.1a14.494,14.494,0,0,1-6.336,1.123c-8.261,0-13.313-4.893-13.313-12.832l-.278-17.361h-7.058V17.129h2.005c4.17,0,5.265-2.807,5.265-6.5V7.119l11.033,0ZM453.085,37.1c0,6.336,3.34,9.865,8.393,9.865a8.22,8.22,0,0,0,8.261-5.935l10.747,3.289c-1.764,6.977-8.341,13.875-19.007,13.875-11.87,0-20.5-8.742-20.5-21.093,0-12.431,8.393-21.173,20.1-21.173,10.988,0,17.4,6.737,19.168,13.875L469.338,33.09a7.839,7.839,0,0,0-8.02-5.935C456.265,27.154,453.085,30.683,453.085,37.1Zm40.738,6.736c.16,2.727,2.085,5.374,6.255,5.374,3.128,0,4.652-1.684,4.652-3.449,0-1.444-.962-2.647-3.93-3.288l-4.572-1.043c-8.5-1.845-11.87-6.657-11.87-12.271,0-7.3,6.416-13.233,15.319-13.233,11.549,0,15.559,7.218,15.96,11.869l-10.105,1.845c-.321-2.647-2.005-4.892-5.694-4.892-2.326,0-4.331,1.363-4.331,3.449,0,1.684,1.363,2.647,3.128,2.967l5.293,1.043c8.261,1.684,12.271,6.656,12.271,12.511,0,6.817-5.213,13.474-15.88,13.474-12.512,0-16.522-8.1-16.842-12.512ZM188.5,45.5c-1.923,6.891-8.254,12.661-18.351,12.661-10.979,0-20.756-7.853-20.756-21.236,0-12.822,9.537-21,19.874-21,12.342,0,19.954,7.613,19.954,20.435a25.478,25.478,0,0,1-.24,3.767H161.257c.241,4.488,4.328,7.693,9.055,7.693,4.408,0,6.892-2.083,8.014-5.209ZM177.444,32.273c-.16-3.045-2.244-6.731-8.014-6.731a7.588,7.588,0,0,0-7.934,6.731Zm15.692,7.854V32.273h17.729v7.854Z" fill="#051f3e"/></svg>