<?xml version="1.0" standalone="no"?>
<!DOCTYPE svg PUBLIC "-//W3C//DTD SVG 20010904//EN"
 "http://www.w3.org/TR/2001/REC-SVG-20010904/DTD/svg10.dtd">
<svg version="1.0" xmlns="http://www.w3.org/2000/svg"
 width="1000.000000pt" height="1000.000000pt" viewBox="0 0 1000.000000 1000.000000"
 preserveAspectRatio="xMidYMid meet">
<metadata>
Created by potrace 1.11, written by Peter Selinger 2001-2013
</metadata>
<g transform="translate(0.000000,1000.000000) scale(0.100000,-0.100000)"
fill="#000000" stroke="none">
<path d="M0 5000 l0 -5000 1870 0 c1029 0 1870 2 1870 4 0 6 28 122 40 166 5
19 34 139 65 265 30 127 60 246 65 265 9 34 99 400 235 955 36 149 70 286 75
305 9 32 63 250 236 960 35 146 69 281 74 300 5 19 41 166 80 325 39 160 75
306 80 325 5 19 46 186 91 370 45 184 105 430 134 545 l52 210 322 3 c176 1
321 3 321 5 0 1 21 83 46 182 43 168 63 250 83 335 5 19 27 109 51 200 39 152
57 228 79 320 5 19 16 64 25 100 10 36 28 108 41 160 13 52 31 124 41 160 9
36 20 81 24 100 4 19 35 141 67 270 33 129 63 246 65 260 3 14 166 664 362
1445 195 781 358 1430 361 1443 l5 22 -3430 0 -3430 0 0 -5000z"/>
</g>
</svg>
