<svg xmlns="http://www.w3.org/2000/svg" viewBox="0 0 175.75 31.03"><defs><style>.cls-1{fill:#11765b;}.cls-1,.cls-2,.cls-3{fill-rule:evenodd;}.cls-2{fill:#e67835;}.cls-3{fill:#d52935;}</style></defs><title>logo--7-eleven--horizontal</title><g id="Layer_2" data-name="Layer 2"><g id="Layer_1-2" data-name="Layer 1"><polygon class="cls-1" points="160.22 0.07 160.96 0 161.73 0.07 162.93 0.25 163.63 0.42 164.26 0.7 164.75 1.02 165.14 1.33 165.77 2.07 166.26 2.95 166.65 3.97 166.89 5.09 166.89 30.86 158.22 30.86 158.22 9.48 157.91 8.74 157.27 8.18 156.57 7.79 155.76 7.69 155.06 7.79 154.25 8.29 153.8 8.88 153.38 9.69 153.38 30.86 144.67 30.86 144.67 0.81 153.38 0.81 153.38 3.72 154.5 2.77 155.2 2.14 155.69 1.69 156.33 1.33 157.06 0.95 157.94 0.56 158.96 0.25 160.22 0.07 160.22 0.07"/><polygon class="cls-1" points="69.19 0.81 69.19 24.19 75.41 24.19 75.41 30.86 60.38 30.86 60.38 0.81 69.19 0.81 69.19 0.81"/><polygon class="cls-1" points="107.14 0.81 110.48 19.98 114.16 0.81 120.97 0.81 115.25 30.86 102.23 30.86 97.84 0.81 107.14 0.81 107.14 0.81"/><polygon class="cls-1" points="139.83 0.81 139.83 7.48 132.59 7.48 132.59 12.96 139.83 12.96 139.83 18.71 132.59 18.71 132.59 24.19 139.83 24.19 139.83 30.86 123.85 30.86 123.85 0.81 139.83 0.81 139.83 0.81"/><polygon class="cls-1" points="34.3 13.02 34.3 18.78 24.08 18.78 24.08 13.02 34.3 13.02 34.3 13.02"/><polygon class="cls-1" points="54.66 0.81 54.66 7.48 47.29 7.48 47.29 12.96 54.66 12.96 54.66 18.71 47.29 18.71 47.29 24.19 54.66 24.19 54.66 30.86 38.62 30.86 38.62 0.81 54.66 0.81 54.66 0.81"/><polygon class="cls-1" points="94.58 0.81 94.58 7.48 87.24 7.48 87.24 12.96 94.58 12.96 94.58 18.71 87.24 18.71 87.24 24.19 94.58 24.19 94.58 30.86 78.5 30.86 78.5 0.81 94.58 0.81 94.58 0.81"/><polygon class="cls-2" points="0 7.97 10.25 7.97 12.57 5.41 13.83 4.21 15.41 2.95 16.78 2 18.5 0.95 0 0.95 0 7.97 0 7.97"/><path class="cls-3" d="M22.47.68c-5.71,1.43-11.29,7-13,11-3.61,8.21-3,19.22-3,19.22s6.25,0,8.88,0c-.1-7.8-.05-12.62,1.07-16.41s6-6.29,6-6.29V.68Z"/><path class="cls-1" d="M169.39,27.54a2.83,2.83,0,1,1,2.84,2.91,2.82,2.82,0,0,1-2.84-2.91ZM172.23,31a3.49,3.49,0,1,0-3.54-3.49A3.47,3.47,0,0,0,172.23,31Zm-.74-3.22h.7l1.06,1.75h.68l-1.14-1.77a1.05,1.05,0,0,0,1-1.11c0-.79-.47-1.14-1.42-1.14h-1.53v4h.61V27.81Zm0-.51V26.05h.83c.42,0,.87.1.87.59s-.46.66-1,.66Z"/></g></g></svg>